<svg xmlns="http://www.w3.org/2000/svg" viewBox="0 0 60 40">
  <rect width="60" height="40" fill="#003399"/>
  <g fill="#ffcc00">
    <g transform="translate(30 20)">
      <g transform="rotate(0)">
        <polygon points="0,-9 0.9,-2.8 6.1,-2.8 1.9,0.6 3.7,6.2 0,3  -3.7,6.2 -1.9,0.6 -6.1,-2.8 -0.9,-2.8"/>
      </g>
      <g transform="rotate(30)">
        <polygon points="0,-9 0.9,-2.8 6.1,-2.8 1.9,0.6 3.7,6.2 0,3  -3.7,6.2 -1.9,0.6 -6.1,-2.8 -0.9,-2.8"/>
      </g>
      <g transform="rotate(60)">
        <polygon points="0,-9 0.9,-2.8 6.1,-2.8 1.9,0.6 3.7,6.2 0,3  -3.7,6.2 -1.9,0.6 -6.1,-2.8 -0.9,-2.8"/>
      </g>
      <g transform="rotate(90)">
        <polygon points="0,-9 0.9,-2.8 6.1,-2.8 1.9,0.6 3.7,6.2 0,3  -3.7,6.2 -1.9,0.6 -6.1,-2.8 -0.9,-2.8"/>
      </g>
      <g transform="rotate(120)">
        <polygon points="0,-9 0.9,-2.8 6.1,-2.8 1.9,0.6 3.7,6.2 0,3  -3.7,6.2 -1.9,0.6 -6.1,-2.8 -0.9,-2.8"/>
      </g>
      <g transform="rotate(150)">
        <polygon points="0,-9 0.9,-2.8 6.1,-2.8 1.9,0.6 3.7,6.2 0,3  -3.7,6.2 -1.9,0.6 -6.1,-2.8 -0.9,-2.8"/>
      </g>
      <g transform="rotate(180)">
        <polygon points="0,-9 0.9,-2.8 6.1,-2.8 1.9,0.6 3.7,6.2 0,3  -3.7,6.2 -1.9,0.6 -6.1,-2.8 -0.9,-2.8"/>
      </g>
      <g transform="rotate(210)">
        <polygon points="0,-9 0.9,-2.8 6.1,-2.8 1.9,0.6 3.7,6.2 0,3  -3.7,6.2 -1.9,0.6 -6.1,-2.8 -0.9,-2.8"/>
      </g>
      <g transform="rotate(240)">
        <polygon points="0,-9 0.9,-2.8 6.1,-2.8 1.9,0.6 3.7,6.2 0,3  -3.7,6.2 -1.9,0.6 -6.1,-2.8 -0.9,-2.8"/>
      </g>
      <g transform="rotate(270)">
        <polygon points="0,-9 0.9,-2.8 6.1,-2.8 1.9,0.6 3.7,6.2 0,3  -3.7,6.2 -1.9,0.6 -6.1,-2.8 -0.9,-2.8"/>
      </g>
      <g transform="rotate(300)">
        <polygon points="0,-9 0.9,-2.8 6.1,-2.8 1.9,0.6 3.7,6.2 0,3  -3.7,6.2 -1.9,0.6 -6.1,-2.8 -0.9,-2.8"/>
      </g>
      <g transform="rotate(330)">
        <polygon points="0,-9 0.9,-2.8 6.1,-2.8 1.9,0.6 3.7,6.2 0,3  -3.7,6.2 -1.9,0.6 -6.1,-2.8 -0.9,-2.8"/>
      </g>
    </g>
  </g>
</svg>
