<svg xmlns="http://www.w3.org/2000/svg" viewBox="0 0 60 40">
  <defs>
    <clipPath id="stripes">
      <rect width="60" height="40"/>
    </clipPath>
  </defs>
  <rect width="60" height="40" fill="#b22234"/>
  <g clip-path="url(#stripes)" fill="#fff">
    <rect y="4" width="60" height="4"/>
    <rect y="12" width="60" height="4"/>
    <rect y="20" width="60" height="4"/>
    <rect y="28" width="60" height="4"/>
    <rect y="36" width="60" height="4"/>
  </g>
  <rect width="26" height="20" fill="#3c3b6e"/>
  <g fill="#fff">
    <g transform="translate(3.2 3)">
      <g>
        <circle r="0.9"/>
        <circle cx="3.2" r="0.9"/>
        <circle cx="6.4" r="0.9"/>
        <circle cx="9.6" r="0.9"/>
      </g>
      <g transform="translate(0 3.2)">
        <circle r="0.9"/>
        <circle cx="3.2" r="0.9"/>
        <circle cx="6.4" r="0.9"/>
        <circle cx="9.6" r="0.9"/>
      </g>
      <g transform="translate(0 6.4)">
        <circle r="0.9"/>
        <circle cx="3.2" r="0.9"/>
        <circle cx="6.4" r="0.9"/>
        <circle cx="9.6" r="0.9"/>
      </g>
      <g transform="translate(0 9.6)">
        <circle r="0.9"/>
        <circle cx="3.2" r="0.9"/>
        <circle cx="6.4" r="0.9"/>
        <circle cx="9.6" r="0.9"/>
      </g>
      <g transform="translate(0 12.8)">
        <circle r="0.9"/>
        <circle cx="3.2" r="0.9"/>
        <circle cx="6.4" r="0.9"/>
        <circle cx="9.6" r="0.9"/>
      </g>
    </g>
  </g>
</svg>
